<svg xmlns="http://www.w3.org/2000/svg" xmlns:xlink="http://www.w3.org/1999/xlink" viewBox="0 0 1712.92 2646.37"><defs><clipPath id="clip-path" transform="translate(-169.87 -148.67)"><polygon points="404.62 2078.17 1647.67 2078.17 1983.27 105.61 94.22 129.25 404.62 2078.17" style="fill:none"/></clipPath><linearGradient id="Fade_to_Black_6" x1="194.71" y1="1280.1" x2="1907.63" y2="1280.1" gradientTransform="matrix(-1, 0, 0, 1, 2077.5, 0)" gradientUnits="userSpaceOnUse"><stop offset="0" stop-color="#231f20"/><stop offset="1" stop-color="#231f20" stop-opacity="0"/></linearGradient><linearGradient id="Fade_to_Black_6-2" x1="194.71" y1="838.33" x2="1907.63" y2="838.33" xlink:href="#Fade_to_Black_6"/><linearGradient id="Fade_to_Black_6-3" x1="235.38" y1="937.15" x2="1131.27" y2="937.15" xlink:href="#Fade_to_Black_6"/><linearGradient id="Fade_to_Black_6-4" x1="238.06" y1="1196.9" x2="1840.99" y2="1196.9" xlink:href="#Fade_to_Black_6"/><linearGradient id="Fade_to_Black_6-5" x1="339.01" y1="1262.2" x2="1904.73" y2="1262.2" xlink:href="#Fade_to_Black_6"/><linearGradient id="Fade_to_Black_6-6" x1="1148.46" y1="1796.79" x2="1747.34" y2="1796.79" xlink:href="#Fade_to_Black_6"/><linearGradient id="Fade_to_Black_6-7" x1="973.73" y1="1697.52" x2="1781.54" y2="1697.52" xlink:href="#Fade_to_Black_6"/><linearGradient id="Fade_to_Black_6-8" x1="375.13" y1="1342.07" x2="1904" y2="1342.07" xlink:href="#Fade_to_Black_6"/><linearGradient id="Fade_to_Black_6-9" x1="1055.86" y1="979.54" x2="1070.46" y2="1215.7" xlink:href="#Fade_to_Black_6"/><clipPath id="clip-path-2" transform="translate(-169.87 -148.67)"><path d="M800.48,766.83c26.29,20.6,70.37,5.9,100.42,20.48,1.82-85.21-81.38-116.72-117-82.32C772.13,716.36,786.63,756,800.48,766.83Z" style="fill:none"/></clipPath><radialGradient id="New_Gradient_Swatch_5" cx="1081.93" cy="1000.49" r="15.91" gradientTransform="matrix(-3.96, 0, 0, 3.96, 5152.24, -3232.05)" gradientUnits="userSpaceOnUse"><stop offset="0" stop-color="#fff"/><stop offset="1" stop-color="#fff" stop-opacity="0"/></radialGradient><clipPath id="clip-path-3" transform="translate(-169.87 -148.67)"><path d="M1141.77,780c-46.63,7.12-90.11,5.85-136.74,13a120.26,120.26,0,0,1,47.84-81.36c26.66-19.88,59.79-22.44,92.65-17.35,14.2,2.2,28.49,7.14,38.82,17.13s15.85,25.8,10.84,39.27C1187.73,770.7,1162.9,776.8,1141.77,780Z" style="fill:none"/></clipPath><radialGradient id="New_Gradient_Swatch_5-2" cx="1019.22" cy="1001.12" r="15.91" xlink:href="#New_Gradient_Swatch_5"/></defs><title>woman-engineer</title><g style="isolation:isolate"><g id="GraphicMama"><g style="clip-path:url(#clip-path)"><g id="background"><g style="opacity:0.699999988079071"><path d="M1794.44,585.14l-1523-106c-61.41-4.27-110.58,50.13-100.13,110.8L414.61,2002.52a94.91,94.91,0,0,0,93.54,78.8H1559.37a94.91,94.91,0,0,0,93.5-78.56L1881.35,696.17A94.91,94.91,0,0,0,1794.44,585.14Z" transform="translate(-169.87 -148.67)" style="fill:#fff"/><g style="mix-blend-mode:overlay"><path d="M1794.44,585.14l-1523-106c-61.41-4.27-110.58,50.13-100.13,110.8L414.61,2002.52a94.91,94.91,0,0,0,93.54,78.8H1559.37a94.91,94.91,0,0,0,93.5-78.56L1881.35,696.17A94.91,94.91,0,0,0,1794.44,585.14Z" transform="translate(-169.87 -148.67)" style="fill:url(#Fade_to_Black_6)"/></g></g><g style="opacity:0.200000002980232"><path d="M1805.2,1131.61,1218.66,545.06l575.79,40.08a94.91,94.91,0,0,1,86.9,111Z" transform="translate(-169.87 -148.67)" style="fill:#fff"/><path d="M1805.2,1131.61,1218.66,545.06l575.79,40.08a94.91,94.91,0,0,1,86.9,111Z" transform="translate(-169.87 -148.67)" style="fill:url(#Fade_to_Black_6-2)"/></g><g style="opacity:0.200000002980232"><path d="M1667.69,1248.77Q1306.53,887.87,946.23,526.1l216.92,15.1,634.37,634.37-30.19,172.64Q1717.52,1298.47,1667.69,1248.77Z" transform="translate(-169.87 -148.67)" style="fill:#fff"/><path d="M1667.69,1248.77Q1306.53,887.87,946.23,526.1l216.92,15.1,634.37,634.37-30.19,172.64Q1717.52,1298.47,1667.69,1248.77Z" transform="translate(-169.87 -148.67)" style="fill:url(#Fade_to_Black_6-3)"/></g><g style="opacity:0.200000002980232"><path d="M1156,1402.67,236.5,483.19a94.69,94.69,0,0,1,34.9-4.07l619.53,43.12q264.91,266,530.23,531.64,169.13,169.25,338.47,338.29l-91.41,522.73Z" transform="translate(-169.87 -148.67)" style="fill:#fff"/><path d="M1156,1402.67,236.5,483.19a94.69,94.69,0,0,1,34.9-4.07l619.53,43.12q264.91,266,530.23,531.64,169.13,169.25,338.47,338.29l-91.41,522.73Z" transform="translate(-169.87 -148.67)" style="fill:url(#Fade_to_Black_6-4)"/></g><g style="opacity:0.200000002980232"><path d="M1646.94,2022.8Q1385,1761.42,1123.38,1499.71,648.44,1024.78,172.77,550.59a95.36,95.36,0,0,1,30.49-49L453.87,752.2,1486.38,1784.71l174.16,174.16-7.67,43.88A94.78,94.78,0,0,1,1646.94,2022.8Z" transform="translate(-169.87 -148.67)" style="fill:#fff"/><path d="M1646.94,2022.8Q1385,1761.42,1123.38,1499.71,648.44,1024.78,172.77,550.59a95.36,95.36,0,0,1,30.49-49L453.87,752.2,1486.38,1784.71l174.16,174.16-7.67,43.88A94.78,94.78,0,0,1,1646.94,2022.8Z" transform="translate(-169.87 -148.67)" style="fill:url(#Fade_to_Black_6-5)"/></g><g style="opacity:0.200000002980232"><path d="M899.22,2081.32H508.15a94.91,94.91,0,0,1-93.54-78.8l-84.45-490.26Z" transform="translate(-169.87 -148.67)" style="fill:#fff"/><path d="M899.22,2081.32H508.15a94.91,94.91,0,0,1-93.54-78.8l-84.45-490.26Z" transform="translate(-169.87 -148.67)" style="fill:url(#Fade_to_Black_6-6)"/></g><g style="opacity:0.200000002980232"><path d="M621.42,1639.18l442.14,442.14H950.86L319.41,1449.86,296,1313.72Z" transform="translate(-169.87 -148.67)" style="fill:#fff"/><path d="M621.42,1639.18l442.14,442.14H950.86L319.41,1449.86,296,1313.72Z" transform="translate(-169.87 -148.67)" style="fill:url(#Fade_to_Black_6-7)"/></g><g style="opacity:0.200000002980232"><path d="M1115.2,2081.32l-830-830L173.5,602.83q395.75,394,790.39,789,331.06,331.05,662.36,661.87a94.78,94.78,0,0,1-66.88,27.58Z" transform="translate(-169.87 -148.67)" style="fill:#fff"/><path d="M1115.2,2081.32l-830-830L173.5,602.83q395.75,394,790.39,789,331.06,331.05,662.36,661.87a94.78,94.78,0,0,1-66.88,27.58Z" transform="translate(-169.87 -148.67)" style="fill:url(#Fade_to_Black_6-8)"/></g></g><g id="Hair"><path d="M1008.73,370.73c-61.52-9.28-121.63,31.69-153.5,82.6S783.73,553.71,768.81,611C749.25,686.2,750.42,769.72,735,845.7c-13.34,65.7-17.42,132.54-27.39,198.66-4.27,28.32-7.75,58.27-17.15,85.2-10.74,30.76-24.88,58.89-28.25,91.63-3.87,37.53,6.14,78.16,35.45,103.48C693,1313.21,682,1291.3,688,1278.89a294.7,294.7,0,0,0,34.23,69.48,255.06,255.06,0,0,1-14.68-61.17c7.52,24.09,20.67,48.83,35.68,69.51a207.65,207.65,0,0,0,26.06,29.58c6,5.65,26.5,16.08,29.22,22.75a180.89,180.89,0,0,1-13.32-70.54c1.21,28.18,13.49,55.72,33.95,76.1l-.89-80.35c.24,22,.57,44.56,8.8,65.09,14.83,37,47.39,40.21,82.55,50.71,43.37,13,88.66,20.67,134.29,21.35,50,.75,115.24-1.27,147.29-44.15a259.17,259.17,0,0,0,37.89-71.84,225.06,225.06,0,0,1-34.18,84.49,202,202,0,0,0,43.53-56,171.73,171.73,0,0,1-26.59,53,308.52,308.52,0,0,0,82.5-77c-2.57,22.56-16.38,43.85-36.54,56.33,85.39-42.13,149.67-118.66,178.65-204.86,33.69-100.21,11.35-203.81-18.41-301.68-31.52-103.68-66.65-207.07-120.16-302.21s-126.56-182.32-222.11-241.08c-19.79-12.17-44.42-7.88-67.39-2.13-1,.26-2.25.73-2.4,1.72S1009,371.71,1008.73,370.73Z" transform="translate(-169.87 -148.67)" style="fill:#61350c"/><path d="M1192.68,934.64l31.42,176.74q-5.23-93.8-5.07-187.79,10.81,79.16,18.13,158.74,3.15-88.49-.31-177a1317.18,1317.18,0,0,1,22.42,177.19c14.36-109.55-5.34-220.38-25-329.11A2059.11,2059.11,0,0,1,1300,1042.29c9.63-71.63-8.36-143.77-26.22-213.81,23.69,65.9,34.87,135.51,45.92,204.66A777.86,777.86,0,0,0,1298,828.42c35.8,84.71,52.27,176.11,68.48,266.64l-30-219.65a1503.4,1503.4,0,0,1,65.93,187.16l-55.6-238c34,65.73,68.78,134.55,69.68,208.54-4.87-98.31-42-191.78-78.6-283.14a1295.08,1295.08,0,0,1,76.8,208.42c7.84,28.64,18.27,55.15,27.26,82.89,10,30.94,4.63,72.15-1.48,103.39-14.7,75.24-58.73,141.2-105.24,202.13a322.69,322.69,0,0,0,56.36-138.33,354.68,354.68,0,0,1-39.29,86,248.64,248.64,0,0,0,17.61-131.9,452.92,452.92,0,0,1-80.31,231.15,341.8,341.8,0,0,0,43.17-207.05,465.5,465.5,0,0,1-45.57,160.74,606.16,606.16,0,0,0,24.05-159.1A457,457,0,0,1,1242.24,1401c13.41-21.43,20.23-46.26,26-70.88a1028.82,1028.82,0,0,0,21.3-127q-11.08,55.54-25.18,110.41c-7.7,30-16.5,60.64-35.48,85.09a516.21,516.21,0,0,0,35.54-241.52c-11.89,91.33-32.21,184.39-84.17,260.43-4.08,6-9.89,12.5-17,11.39a434.61,434.61,0,0,0,71.09-211.33,635.35,635.35,0,0,1-68,182.95,544.61,544.61,0,0,0,36.18-184.92c-.67,35.48-20.35,78.54-33.5,111-15.25,37.62-33.9,74.53-56.71,108.15,13.9-64.59,26-126.61,23-193.41a532.27,532.27,0,0,1-45.81,217.29,595.29,595.29,0,0,0,31.24-201c-8.14,63.81-16.64,128.9-44.52,186.87a899.67,899.67,0,0,0,18.93-155c-20.29,50.68-20.66,109.93-52.77,154.08,20.83-93.31,41.79-188.39,33.54-283.64q-22.37,130.57-56.31,258.79c9-69.86,18-140.06,16-210.46L989.8,1436.87a2572.35,2572.35,0,0,0,12.92-272.22Q977,1295.23,960.61,1427.42l10-14.5c-1.52,12.42-8.44,22-19.9,27-8.57-81.76-9.17-164.13-9.76-246.34q-12.78,123.18-19.79,246.86a1980.4,1980.4,0,0,1-6.26-240c-16.77,75.42-15.25,153.55-13.64,230.8a1456,1456,0,0,1-15.73-244.88c-10,80.53-9.35,161.94-8.71,243.08l-21-252.4c-10.12,72.61-4.13,146.39,1.88,219.45q-19-114.36-29-230c-13,74.18-15.14,147.71-17.84,223l-23.58-234.63c-12.36,48.33-14.3,98.63-16.18,148.48a1164.87,1164.87,0,0,1-18.58-164.57,605.94,605.94,0,0,0,11.94,237.4c-36.43-72.72-42.53-156.43-46.25-237.69a533.77,533.77,0,0,0-.41,135.55l-12.62-56.38a619,619,0,0,0-.38,70.93,320.87,320.87,0,0,1,.76-146,393.25,393.25,0,0,0-14.11,126.06,326.8,326.8,0,0,1-2.61-104.3,285.52,285.52,0,0,0-18.5,96.86c-11.27-31.92,6.21-66,20.92-96.44a671.79,671.79,0,0,0,64.65-240.38c2.87-37.82,2.53-75.86,6.37-113.59,4.68-46.06,15.56-91.29,28.85-135.64-24.62,116-16,232.21-9.06,350.54-4.1-76.39,8.48-152.58,21-228a1437.32,1437.32,0,0,0,2.27,189.75,651.47,651.47,0,0,1,12.87-166.34q2,97.81-2.8,195.6l20.33-261a1623.7,1623.7,0,0,1,8.29,228.24,1072,1072,0,0,1,6-146.33c9.45,59.37,12.46,119.55,15.46,179.59L882,731.76a2783.79,2783.79,0,0,1,7.82,306.83c12.35-47.67,22.3-96.89,20.83-146.12,3.35,25.9,3.26,52.11,3.16,78.22L913.35,1092,933.6,925.92l7.26,209.48c16.63-56.83,20-116.57,23.32-175.69l8.75-156.91q9.92,132.43,17.19,265l8.21-164.63a1007.33,1007.33,0,0,1,4.41,164.53A2023.54,2023.54,0,0,0,1025.53,741c11.93,117.64,18.06,230.57,18.61,348.81q5.35-59.64,15.4-118.73l1.73,132.37L1089,813.63a1750.39,1750.39,0,0,1,5.56,296.23,1222,1222,0,0,1,13.92-144.51,997.17,997.17,0,0,1,1.13,137.18l10.06-135.22a1558.66,1558.66,0,0,1,9.27,165.24c20.4-100.61,12.44-204.54,4.39-306.88a933.62,933.62,0,0,1,27.14,306.25l8.9-194.28a929.79,929.79,0,0,1,20.34,175.83A1298.23,1298.23,0,0,0,1194.93,940a8.71,8.71,0,0,1,10.8,2.11" transform="translate(-169.87 -148.67)" style="fill:#231f20;opacity:0.300000011920929"/></g><path d="M1066.7,1522.9c-14,27.24-28.37,56.17-28.61,86.46-67.64,1-135.17,5.29-202.68,10.5-1-56.8-23.14-126.24-8.63-182.83-13.87-17.88-17.35-41-27.25-61.4a61,61,0,0,1,25.41-80,1005.34,1005.34,0,0,0,123.79-81c22.45-17.17,44.68-35.89,58.44-60.57,16.88-30.29,19.28-66.32,30.19-99.24s36.29-66.22,71-66.71c6.56,28.64,2,58.47,1.86,87.85s-1.23,74.56,20.56,94.27c26.77,24.2,82.85-.68,81.92,42.34-.19,8.65-3.28,33.19-7.24,40.89Z" transform="translate(-169.87 -148.67)" style="fill:#ffbe87"/><path d="M1066.7,1522.9c-14,27.24-28.37,56.17-28.61,86.46-67.64,1-135.17,5.29-202.68,10.5-1-56.8-23.14-126.24-8.63-182.83-13.87-17.88-17.35-41-27.25-61.4a61,61,0,0,1,25.41-80,1005.34,1005.34,0,0,0,123.79-81c22.45-17.17,44.68-35.89,58.44-60.57,16.88-30.29,19.28-66.32,30.19-99.24s36.29-66.22,71-66.71c6.56,28.64,2,58.47,1.86,87.85s-1.23,74.56,20.56,94.27c26.77,24.2,82.85-.68,81.92,42.34-.19,8.65-3.28,33.19-7.24,40.89Z" transform="translate(-169.87 -148.67)" style="opacity:0.400000005960465;mix-blend-mode:overlay;fill:url(#Fade_to_Black_6-9)"/><path d="M1019.56,1114.19c3.32-19.18,11.74-41,17.81-59.32,10.9-32.92,36.29-66.22,71-66.71,6.26,27.31,2.4,55.71,1.92,83.77-12.62,15-29.31,25.81-47.55,32.79-19,7.26-28.87,10.1-30.69,32.95l-5.7,71.88c-3.4-28.55-11.4-63.71-7.24-92.29Q1019.29,1115.74,1019.56,1114.19Z" transform="translate(-169.87 -148.67)" style="fill:#231f20;opacity:0.100000001490116"/><path d="M830.4,1666c9.06-19.45,12.26-44.22,13.3-71.42,35.12,3.05,106.68-4.47,132.83,18.29,5.36,4.67,10.33,11.62,14.91,19.86,8.68,35.67,22.59,70,27.67,106.62,6.86,49.44-8.1,103.31-24.84,149.3-25.52,70.11-137.58,298.25-123.05,321.62C943.7,2326.87,992.6,2623.09,991,2701.86l-110.64,26c-55.77-165.56-179.41-496.56-179.27-514.47C701.2,2196.6,800.78,1729.57,830.4,1666Z" transform="translate(-169.87 -148.67)"/><path d="M621.17,1517c-13.06-3.62-23-14.88-34-30.38a893.09,893.09,0,0,1-81.34-140.15c-21.41-46.08-53.3-99.89-44.4-152.5,16.73,21.75,195.36,221.81,196.81,220.74l64.06-47.32c31-22.92,62.62-46.42,84.7-78,21.14-30.28,33.9-68.24,64.43-89,51-34.67,56.9,30.65,55.24,67.66-1.78,39.54-18.56,76.63-49.18,102.14-17,14.14-37,24.08-55.66,35.85-32.27,20.31-60.72,46.09-92,67.95-26,18.16-56.12,34-86.46,42.42C634.9,1518.67,627.65,1518.75,621.17,1517Z" transform="translate(-169.87 -148.67)" style="fill:#ffbe87"/><path d="M684.83,1395.57c10-7.4,27.47-20.83,37.49-28.23,31-22.92,62.62-46.42,84.7-78,21.14-30.28,33.9-68.24,64.43-89,51-34.67,56.9,30.65,55.24,67.66-1.78,39.54-18.56,76.63-49.19,102.14-17,14.14-37,24.08-55.66,35.84-29.83,18.78-56.43,42.2-85,62.9C722.5,1442.18,699.21,1422.31,684.83,1395.57Z" transform="translate(-169.87 -148.67)" style="fill:#231f20;opacity:0.100000001490116"/><path d="M770.7,1455.68a649.12,649.12,0,0,0-77.18-84.2c27.13-21.38,70.16-57.23,87.92-82.67,25.12-36,37.73-76.94,74-101.62,60.6-41.21,70.2,32.25,68.22,76.24-2.11,47-22.06,91.09-58.46,121.41-20.18,16.81-43.94,28.62-66.16,42.61C788.91,1433.83,779.75,1444.85,770.7,1455.68Z" transform="translate(-169.87 -148.67)" style="fill:#15598f"/><path d="M778.26,1377.62c4.25-27,12.48-40.48,53.29-83.69,5.27-5.58,13.92-6.23,21.18-8.71a97.16,97.16,0,0,0,40.1-26.46,60.09,60.09,0,0,0,12.36-19.45c3.55-9.19,9.5-17.28,14.81-25.63,3.62,16.19,4.36,34.67,3.68,49.74-2.11,47-22.06,91.09-58.46,121.41-20.18,16.81-43.94,28.62-66.16,42.61-10.15,6.39-19.31,17.41-28.36,28.24q-10.39-13.51-21.46-26.45c3.54,4.15,37.78-9.86,35.59-13.94C781.91,1409.88,777,1385.48,778.26,1377.62Z" transform="translate(-169.87 -148.67)" style="fill:#231f20;opacity:0.300000011920929"/><path d="M805.87,1266c-24.1,43.8-59.86,88.26-105.41,111.94-2.3-2.17-4.6-4.34-6.94-6.47,27.13-21.38,70.16-57.23,87.92-82.67,24.09-34.52,36.73-73.54,69.74-98.46C831.1,1211.14,819,1242.19,805.87,1266Z" transform="translate(-169.87 -148.67)" style="fill:#231f20;opacity:0.300000011920929"/><path d="M932.56,1610.05l138.7-5.37c0,4.19.22,8.4.62,12.62,4.25,44.49,103.42,80.39,123.31,195.34,12.93,74.72,9.82,156-3.08,228.85-13.73,77.53-24.88,162.07-5,241.08,8.13,32.31,21.18,62.12,27.07,95.37,8,45.4,2,92.79-5.6,137.66-8.61,51-19.19,101.18-31.64,150.28-10.49,41.35-30,84.27-33.55,128-9.5,4.48-20.29-4.29-26.08-16.61s-92.88-7.8-88.53-21.82C1142.23,2389.89,880.35,1832,928.29,1682.58,934.85,1662.15,934.93,1637.17,932.56,1610.05Z" transform="translate(-169.87 -148.67)" style="fill:#231f20"/><path d="M1028.36,1890.89c-34.46,57.29-42.47,124.42-38.23,190.14-41.73-179.38-83.55-330.8-61.84-398.45,6.56-20.43,6.64-45.41,4.27-72.53l138.7-5.37c0,4.19.22,8.4.62,12.62,3.86,40.4,86,73.72,115.92,165.54C1122,1792.63,1062.6,1834,1028.36,1890.89Z" transform="translate(-169.87 -148.67)" style="opacity:0.5"/><path d="M1180.84,2020.64c2.46-31.74-2.24-181.81-4.51-196.88,3.48-34.62,13.39-18.87,14.28-4.91,11.83,73.17,8.61,152.26-4,223.25-6.78,38.26-12.91,78.23-15,118.4q-1.32-21.77-2-43.57C1175.38,2085,1178.36,2052.53,1180.84,2020.64Z" transform="translate(-169.87 -148.67)" style="fill:#fff;opacity:0.300000011920929;mix-blend-mode:overlay"/><g id="Body"><path d="M1167.44,1223.95c42.62-153.86,155.46,205.88,176.47,352.93l-84,33.61c-48-99.19-95.88-244.56-103.15-260.28C1144.43,1323.63,1161.09,1246.86,1167.44,1223.95Z" transform="translate(-169.87 -148.67)" style="fill:#ffbe87"/><path d="M825.53,1506c-4-25.12-19.4-50.71-26.93-75-6.12-19.75,2.6-39.09,3.09-59.12.5-20.49,81.26-130.56,73.73-196.21,31.51,0,100.83-8.35,123.47-8.76-5.49,24-2.53,40.91,21.91,43.82,32.38,3.85,102.07-54,107.42-57,22,5.93,111.25,51.16,130.59,54.51,7.77,9,61.64,176.16,97.05,241.25-32.23,31.65-121.56,28.19-153.38,60.26-20.09-66.65-37.43-110.47-44.51-131.34-81.93,141.8-122.9,252.1,31.25,367.17-66.86,26.09-138.36,39.87-209.57,47.15-64.77,6.62-139.34-3.64-199.51,7.33,9.57-34.83,22.71-69.07,34.27-103.35,5.52-16.37,11.07-32.88,13.18-50,2.39-19.46.29-39.16-1.82-58.65C822.81,1560.45,829.95,1533.43,825.53,1506Z" transform="translate(-169.87 -148.67)" style="fill:#003b99"/><path d="M1302,1384.24c-11.39-34.72-37.88-141.3-49.93-176.14,3.47,1.71,76.83,201.78,97.69,240.11-6.23,6.12-14.64,10.9-24.31,14.91C1319,1436.41,1310.5,1410.09,1302,1384.24Z" transform="translate(-169.87 -148.67)" style="fill:#fff;opacity:0.200000002980232;mix-blend-mode:overlay"/><path d="M1016.36,1246.51c-24.4,0-50.38-3.86-55.92-31.51a74.9,74.9,0,0,1,5.94-45.89c13.7-1.19,25.42-2.1,32.53-2.23-5.49,24-2.53,40.91,21.91,43.82,32.38,3.85,102.07-54,107.42-57a162.44,162.44,0,0,1,17.42,6.47C1117.28,1205,1071.56,1246.48,1016.36,1246.51Z" transform="translate(-169.87 -148.67)" style="fill:#231f20;opacity:0.300000011920929"/><path d="M814.42,1696.67c5.52-16.37,11.07-32.88,13.18-50,2.39-19.46.29-39.16-1.82-58.65-3-27.54,4.16-54.56-.25-82-4-25.12-19.4-50.71-26.93-75-6.12-19.75,2.6-39.09,3.09-59.12.5-20.49,81.26-130.56,73.73-196.21,12.9,0,32.15-1.4,51.93-3.08-12.73,47.28-54.69,224.66,2.15,234,79.92,13.11,210.27-166.27,249.87-231.48,16.1,7.29,33.19,15.13,47.67,21.37-11.87,9-19.14,24.77-24.72,37.68-9.35,21.63-17,44.48-20.52,67.82-9.31,61.11,8.74,116.51,24.52,175q3.32,12.3,6.58,24.62a57.52,57.52,0,0,0-10.41,8.16c-20.09-66.65-37.43-110.47-44.51-131.34-81.93,141.8-122.9,252.1,31.25,367.17-66.86,26.09-138.36,39.87-209.57,47.15-64.77,6.62-139.34-3.64-199.51,7.33C789.73,1765.19,802.87,1730.95,814.42,1696.67Z" transform="translate(-169.87 -148.67)" style="fill:#231f20;opacity:0.300000011920929"/><path d="M823.71,1581c99.65,9.45,198.67,24.43,295.58,49.9,11.7,39.88,35.75,85.77,60.76,121.79a17.71,17.71,0,0,0,1.19,14.55c6.79,13.07,10.66,27.24,13,41.82-195.06,124.06-376.66,35.37-413.56,22C802.61,1774.46,825.32,1668,823.71,1581Z" transform="translate(-169.87 -148.67)" style="opacity:0.5;mix-blend-mode:overlay"/><path d="M816.08,1482.35c-8.87-46.18-40-83.87-19.72-126.3,15.45-32.34,123.65-193.73,119-187.25,14-.47,27-4.67,41-6.3-16.83,66.75-30.2,141-14.18,208,38-39.73,189-192.17,195.5-211.15a489.73,489.73,0,0,1,67.23,24.39c-37.55,65.54-67,159.09-35.24,227.6-34.68,58.2-60.25,129.42-57.76,158.8,5.15,60.76,59.62,163.89,102.85,206.87-201.68,145-409.28,39-447.47,25.21C822.38,1734.44,833.93,1575.34,816.08,1482.35Z" transform="translate(-169.87 -148.67)" style="fill:#ff3600"/><path d="M936.94,1471.58c-1,48.07-2.77,98.31.46,146.27,5.21,77.41-.87,157-20.48,231.61-8.87-.91-.13-2.61-8.58-3.93,23.05-65.42,23.45-137.78,21.41-206.82-6.53-221-.18-228.35,11.44-272.69.32,1.48,11.17-6.16,18.12-13.32C942,1389.32,937.77,1431.5,936.94,1471.58Z" transform="translate(-169.87 -148.67)" style="fill:#231f20;opacity:0.300000011920929"/><path d="M1112.52,1546.62q-2.11,14.41-3.1,28.92c-.22.08-.43.18-.66.25-54.21,17.41-114.53-.11-168.1-12.53-25.61-5.94-50.93-13.37-75.15-23.69-14-6-30.36-12.75-43.8-22.38a235.7,235.7,0,0,0-4.09-27.93C947.9,1560.08,1109.33,1544.57,1112.52,1546.62Z" transform="translate(-169.87 -148.67)" style="fill:#fff200"/><path d="M1112.52,1546.62q-2.11,14.41-3.1,28.92c-.22.08-.43.18-.66.25-54.21,17.41-114.53-.11-168.1-12.53-25.61-5.94-50.93-13.37-75.15-23.69-14-6-30.36-12.75-43.8-22.38a235.7,235.7,0,0,0-4.09-27.93C947.9,1560.08,1109.33,1544.57,1112.52,1546.62Z" transform="translate(-169.87 -148.67)" style="fill:#fff200;opacity:0.5"/><path d="M1023.18,1535.48c3.32,2.53,5.52,133.23,5.48,193.86q0,46.59-.07,93.17c0,8.52-.31,17-1.11,25.34-10.52-.44-21-.11-31.55.35,1.39-12.3,1.16-24.92,1.17-37.32q0-43.91.06-87.81c0-50.28-11.52-267,11.79-329.32,27.43-73.38,90.8-171.3,145.89-231.77,7.17,3.14,12.94,7,20,10.5-1.16,2.1-111.57,157.39-136.63,227.66C1029.09,1425.57,1022.41,1489.18,1023.18,1535.48Z" transform="translate(-169.87 -148.67)" style="fill:#f9ed32"/><path d="M1023.18,1535.48c3.32,2.53,5.52,133.23,5.48,193.86q0,46.59-.07,93.17c0,8.52-.31,17-1.11,25.34-10.52-.44-21-.11-31.55.35,1.39-12.3,1.16-24.92,1.17-37.32q0-43.91.06-87.81c0-50.28-11.52-267,11.79-329.32,27.43-73.38,90.8-171.3,145.89-231.77,7.17,3.14,12.94,7,20,10.5-1.16,2.1-111.57,157.39-136.63,227.66C1029.09,1425.57,1022.41,1489.18,1023.18,1535.48Z" transform="translate(-169.87 -148.67)" style="fill:#fff200;opacity:0.5"/><path d="M836.11,1567c-1.88-8.54-4.33-16.47-5.5-25.48-1.59-12.21-3.24-24.4-5.09-36.57a712.27,712.27,0,0,0-14.35-72.33c-3.5-13.46-7.59-26.83-9.54-40.63-2.58-18.25,10.23-40.67,18.06-56.93,9.32-19.35,20.3-37.85,31.72-56,23.63-37.59,47.53-72,67.61-111.74,4.34,1.57,28.89-3.25,28.89-3.25-5.36,11.45-14.08,22.19-20.75,32.91-15.09,24.26-29.8,48.77-43.85,73.66-13.78,24.41-27.09,49.19-38.6,74.77a336.09,336.09,0,0,0-13.06,32.8c-6.19,18.83-4.79,33.1.87,52.1a587,587,0,0,1,16.21,69.8c3.86,22.87,14.48,159.7,5.66,202.46-8.62,41.79-23.64,82.14-43,120.1-10.38-2.91-15-7.61-25.21-11,.43.14,2.71-5.7,2.87-6.06,20.26-47.31,34.06-99.43,43.05-149.95,4.88-27.43,10.19-58.87,4.47-86.6Q836.33,1568,836.11,1567Z" transform="translate(-169.87 -148.67)" style="fill:#e6e7e8"/><path d="M836.11,1567c-1.88-8.54-4.33-16.47-5.5-25.48-1.59-12.21-3.24-24.4-5.09-36.57a712.27,712.27,0,0,0-14.35-72.33c-3.5-13.46-7.59-26.83-9.54-40.63-2.58-18.25,10.23-40.67,18.06-56.93,9.32-19.35,20.3-37.85,31.72-56,23.63-37.59,47.53-72,67.61-111.74,4.34,1.57,28.89-3.25,28.89-3.25-5.36,11.45-14.08,22.19-20.75,32.91-15.09,24.26-29.8,48.77-43.85,73.66-13.78,24.41-27.09,49.19-38.6,74.77a336.09,336.09,0,0,0-13.06,32.8c-6.19,18.83-4.79,33.1.87,52.1a587,587,0,0,1,16.21,69.8c3.86,22.87,14.48,159.7,5.66,202.46-8.62,41.79-23.64,82.14-43,120.1-10.38-2.91-15-7.61-25.21-11,.43.14,2.71-5.7,2.87-6.06,20.26-47.31,34.06-99.43,43.05-149.95,4.88-27.43,10.19-58.87,4.47-86.6Q836.33,1568,836.11,1567Z" transform="translate(-169.87 -148.67)" style="fill:#fff200;opacity:0.5"/><path d="M804.85,1403.67c12.56,11.79,25.32,23.73,40.54,31.82s33.45,12,49.87,6.79c16.77-5.32,31-19.71,48.55-19.32,9.54.21,18.33,4.84,27,8.92,34.93,16.5,77.15,24.84,111.74,8.33a110.6,110.6,0,0,1,3.26,18.08c-.66,6.5-1.73,13.83-3,21.82a34.85,34.85,0,0,1-9.17,12.27c-13.94,12.15-36.23,18.41-41.62,38.36-4.11,15.2,1.85,29.09,10.67,41.36,7.22,10.05,19.81,22.35,15.66,35.61-2.84,9.06,1.17,16,7.42,19.65,1.94,55.83,20.41,106.64,80.79,126.42-44.81-1.43-32.75.92-76.54,10.52-16.9,3.7-33.47,9-50.59,11.57-23.3,3.46-47,1.69-70.46-.89-23.66-2.6-47.36-6-70-13.31-21.73-7-42.76-17.52-65.54-19,18-34.73,23.94-74.43,26.56-113.47C845.08,1552.42,838,1473.08,804.85,1403.67Z" transform="translate(-169.87 -148.67)" style="fill:#231f20;opacity:0.100000001490116"/></g><g id="Plans"><path d="M653.1,1722.14l862.43,64.64a29.86,29.86,0,0,0,32-31.49h0a29.86,29.86,0,0,0-25.1-27.77L655,1588.87c-3.55-.57-55.44,9.33-43.24,73.63C620.19,1706.95,644.13,1721.46,653.1,1722.14Z" transform="translate(-169.87 -148.67)" style="fill:#fff"/><path d="M1545,1769.06a29.83,29.83,0,0,1-29.52,17.72L653.1,1722.14c-9-.67-32.9-15.19-41.33-59.64a96.77,96.77,0,0,1-1.8-20.17c17.66,1.89,35.27,4.29,52.89,6.55q107.33,13.78,214.57,28.26,69.67,9.29,139.32,18.67l72.36,9.76c18.09,2.44,71.28-2.58,81.32-6.59,16.43-6.56,34.83-5.14,52.42-3.3q71.82,7.48,142.71,21.75c13.51,2.72,27,5.64,39.94,10.45,10.74,4,21,9.29,31.13,14.55,22.75,11.77,39.91,16.39,65.22,20.07C1504.76,1762.93,1544.42,1770.48,1545,1769.06Z" transform="translate(-169.87 -148.67)" style="fill:#231f20;opacity:0.200000002980232"/><path d="M604.5,1540.88l820.66,272.93a29.86,29.86,0,0,0,38.75-22.73h0a29.86,29.86,0,0,0-17.57-33.05L651.45,1418.4C633.8,1410.84,563.55,1501.83,604.5,1540.88Z" transform="translate(-169.87 -148.67)" style="fill:#fff"/><path d="M593.47,1494.83c.88.53,69,29.65,61.35,15.56-2.85-5.26,20.78-30.56,25.45-35.39,8.28-8.55,12.43-7.62,24-4.9q86.81,20.4,172,47c16.91,5.28,34,10.87,48.58,21s26.35,25.58,27.92,43.22c.59,6.66-.23,13.64,2.35,19.8,4.9,11.69,26,15.68,38,20.4a19.31,19.31,0,0,0,7.27,5c7.28,2.9,14.6,5.73,21.91,8.57q13.92,6.58,27.84,13.13c47,22,93.91,46.74,142.45,65,22.73,8.57,196.92,68.18,258.66,96.91a29.68,29.68,0,0,1-26.15,3.64L604.5,1540.88C592,1528.95,589.89,1512.17,593.47,1494.83Z" transform="translate(-169.87 -148.67)" style="fill:#231f20;opacity:0.200000002980232"/><path d="M678.65,1607.94l780.5,125.1a30,30,0,0,0,34.68-28.51h0a30,30,0,0,0-22.53-30.1L692.72,1475.74C653.39,1488.67,635.16,1573.41,678.65,1607.94Z" transform="translate(-169.87 -148.67)" style="fill:#fff"/><path d="M1083.82,1645.13c76.88,16.18,153.82,30,231,44.37,57.06,10.59,114.55,30.71,173.05,31.83a29.9,29.9,0,0,1-28.75,11.71l-780.5-125.1c-13.72-10.89-21.28-26.78-24-43.84C797.66,1591.38,941.34,1615.15,1083.82,1645.13Z" transform="translate(-169.87 -148.67)" style="fill:#231f20;opacity:0.200000002980232"/></g><g id="Head"><path d="M750.16,505.87c-11.42,19.86-11.17,44.14-9.7,67A879.07,879.07,0,0,0,764.07,726.4c4.85,19.74-7.11,75.43-3.14,130.43,1.81,25.11,87.32,170.2,130.77,214.28,66.6,67.57,148.5,16.71,190.26-5.28,64.06-33.75,150.49-104.43,159.48-137.4,3.74-13.71,17.86-54.56,16.9-68.62,34.24,31.12,76.35,9.19,99.93-22.8,23.19-31.45,42.7-81.34,33-120.93-11.57-47.09-68-27.53-93.52-2.18,18.92-18.82,58.28-131.49,40-206.72-13.31-54.78-47.26-103.61-92-137.91s-99.08-54.82-154.69-64.09c-23.79-4-48.05-5.95-72.05-3.56-23.74,2.37-46.86,9-69.32,17-44.13,15.84-86.64,37.72-121.53,69s-66.43,67.76-77.41,113.46c-.14.57-.21,1.32.3,1.62S750.75,505.82,750.16,505.87Z" transform="translate(-169.87 -148.67)" style="fill:#ffbe87"/><path d="M740.46,572.88c-1.47-22.86-1.72-47.15,9.7-67,.59-.05,1.39-2.79.88-3.09s-.44-1-.3-1.62c11-45.7,42.44-82.05,77.41-113.46s77.4-53.21,121.53-69c22.45-8.06,45.58-14.66,69.32-17,24-2.39,48.26-.41,72.05,3.56,55.61,9.27,110,29.79,154.69,64.09s78.69,83.13,92,137.91c11.12,45.78.89,105.4-13.08,149.32-62.85-18-127.36-31.09-192.64-30.64a18.06,18.06,0,0,0-14.73-9.06c-56.09-4.3-112.67-12.39-169-8.69-37,2.43-108.81-9.19-140.1,13-10.09,7.15-17.71,30-13,40.3,30.65,1.42,77.37,26.55,84.72,56.34-4.5-11.37-14.58-19.83-25.71-24.91s-45.86-17.93-54.71-4.1c-3.34,5.22-1,13.5-1.8,19.33-1.58,11.74-7.21,23.21-10.59,34.54-12.25,41-17.31,117.07-6.36,135.33,23.22,38.7,115,201.77,170.28,230.48-21.63-2.79-39.9-15.36-59.27-37.28-60.49-68.43-129-189.17-130.77-214.28-4-55,8-110.7,3.14-130.43A879.09,879.09,0,0,1,740.46,572.88Z" transform="translate(-169.87 -148.67)" style="fill:#231f20;opacity:0.100000001490116"/><path d="M905,801.09c-18.4-19.64-45.11-12.52-68.77-11.84-12.72.37-38.33,0-45.34-13.44a34.38,34.38,0,0,1-3.8-17.5,20,20,0,0,1,.88-4.15c5.87,17.27,25.32,20.79,42,21.93,21.27,1.45,41.92.14,62.66,6.16,9.93,2.88,13.63,11.32,12.73,19.31C905.25,801.41,905.14,801.25,905,801.09Z" transform="translate(-169.87 -148.67)" style="fill:#fff;opacity:0.400000005960465"/><path d="M1170.73,795.86c-31.83,9-64.49,6.1-98,3-18.83-1.72-71.11-1.33-80.51,18.85-.9-8.09,2.6-17,12.06-20.83,28.5-11.48,59-10.1,89.12-9.65,15.15.23,29.71-1.86,44.8-3.53,39.95-4.43,54.65-23.33,59.42-26.34C1193.72,772.45,1181.31,786.17,1170.73,795.86Z" transform="translate(-169.87 -148.67)" style="fill:#fff;opacity:0.400000005960465"/><g style="clip-path:url(#clip-path-2)"><path d="M800.48,766.83c26.29,20.6,70.37,5.9,100.42,20.48.23-82.73-81.38-116.72-117-82.32C772.13,716.36,786.63,756,800.48,766.83Z" transform="translate(-169.87 -148.67)" style="fill:#fff"/><path d="M934.66,735.34c-.74,29.74-31.61,52.78-67.67,53.39s-65.7-23-66.2-52.76,29.79-64.18,65.85-64.79S935.63,696.14,934.66,735.34Z" transform="translate(-169.87 -148.67)" style="fill:#1c75bc"/><path d="M934.66,735.34c-.74,29.74-31.61,52.78-67.67,53.39s-65.7-23-66.2-52.76,29.79-64.18,65.85-64.79S935.63,696.14,934.66,735.34Z" transform="translate(-169.87 -148.67)" style="mix-blend-mode:overlay;fill:url(#New_Gradient_Swatch_5)"/><path d="M893.43,736.2c-.39,15.63-16.61,27.74-35.56,28.06s-30.89-14-31.16-29.66,12-31.79,31-32.11S893.94,715.61,893.43,736.2Z" transform="translate(-169.87 -148.67)" style="fill:#231f20"/><path d="M893.43,736.2c-.39,15.63-16.61,27.74-35.56,28.06s-30.89-14-31.16-29.66,12-31.79,31-32.11S893.94,715.61,893.43,736.2Z" transform="translate(-169.87 -148.67)" style="fill:#231f20"/><path d="M867.83,729.35C867.29,736,851,741.23,832,741.55s-30.75-5.62-30.86-12.22,12.33-13.54,31.28-13.86S868.54,720.65,867.83,729.35Z" transform="translate(-169.87 -148.67)" style="fill:#fff"/></g><g style="clip-path:url(#clip-path-3)"><path d="M1140.73,779.84c-47.49,7.25-91.78,6-139.27,13.21,4.58-33.56,19.91-56.43,47.06-76.68a129.48,129.48,0,0,1,96-23.86c14.46,2.24,29,7.27,39.54,17.45s16.14,26.27,11,40C1187.54,770.35,1162.25,776.56,1140.73,779.84Z" transform="translate(-169.87 -148.67)" style="fill:#fff"/><path d="M1183,737.8c-.74,29.74-31.61,52.78-67.67,53.39s-65.7-23-66.2-52.76,29.79-64.18,65.85-64.79S1184,698.6,1183,737.8Z" transform="translate(-169.87 -148.67)" style="fill:#1c75bc"/><path d="M1183,737.8c-.74,29.74-31.61,52.78-67.67,53.39s-65.7-23-66.2-52.76,29.79-64.18,65.85-64.79S1184,698.6,1183,737.8Z" transform="translate(-169.87 -148.67)" style="mix-blend-mode:overlay;fill:url(#New_Gradient_Swatch_5-2)"/><path d="M1150.8,735.48c-.41,16.7-14.93,29.59-35.18,29.94s-34.07-13-34.35-29.68,13.9-36,34.15-36.34S1151.35,713.47,1150.8,735.48Z" transform="translate(-169.87 -148.67)" style="fill:#231f20"/><path d="M1150.8,735.48c-.41,16.7-14.93,29.59-35.18,29.94s-34.07-13-34.35-29.68,13.9-36,34.15-36.34S1151.35,713.47,1150.8,735.48Z" transform="translate(-169.87 -148.67)" style="fill:#231f20"/><path d="M1125.2,733.17c-.59,6.18-15.24,11.1-35.49,11.44s-33.93-4.43-34-10.6,14.29-13.45,34.54-13.79S1126,725,1125.2,733.17Z" transform="translate(-169.87 -148.67)" style="fill:#fff"/></g><path d="M1015.33,607.92q0,.22,0,.43c.49,7.49,8.17,13.22,14.82,9.75,94.29-49.19,172.12-16.76,205.12,3.36C1153.4,541.22,1018.25,603.7,1015.33,607.92Z" transform="translate(-169.87 -148.67)" style="fill:#61350c"/><path d="M740.57,613.52q.47,4.22.83,8.46c30.55-15.64,74.94-24.54,126.74,5.84,5.24,3.07,11-3.11,11.14-10.63q0-.22,0-.44C877.28,613.33,800.83,573.81,740.57,613.52Z" transform="translate(-169.87 -148.67)" style="fill:#61350c"/><path d="M1101.47,698.39c21.12-2.42,38.84,1.91,58.66,8.22,48.57,15.45,71.57,4.89,82.89-4a201.62,201.62,0,0,1-47.53-3.53c-7.45-1.45-58.37-25.93-102.85-17.56-76.15,14.33-90.81,110.51-85.18,112.47C1012.73,741.71,1047.22,704.62,1101.47,698.39Z" transform="translate(-169.87 -148.67)" style="fill:#3c2415"/><path d="M834.41,692.92c-14.46-2.63-26.41,1.53-39.74,7.65-32.66,15-48.62,4.19-56.58-4.76a93.63,93.63,0,0,0,32.28-3.06c5-1.38,39-25.37,69.59-16.56,52.28,15.07,65,111.41,61.18,113.32C896.08,737.11,871.54,699.68,834.41,692.92Z" transform="translate(-169.87 -148.67)" style="fill:#3c2415"/><path d="M909.64,411.22c4.5-33.89,12.23-68.25,15.87-102.65A244,244,0,0,1,978,296.52c9.36,3.95,12.79,8.84,17.25,16.8,32.41-60.15,184.77-50.05,229.71,7.48,153.67,196.75,257.41,447.09,282.18,693.64,7.27,72.34,2.85,146.79-23.46,214.14a215.54,215.54,0,0,0,6-69.28,282.35,282.35,0,0,1-78.28,164.34,350,350,0,0,0,38.94-100.38c-21.51,60.09-73.24,108.4-135.24,126.3,36-10.4,46.08-108.45,47.76-135.94,3-48.59-1.07-97.57-18-146.42a103.67,103.67,0,0,1-18.24,71.29c13.35-35.24,13.89-75.24,1.36-112.94,12.11,48-27.63,97.6-80.74,101.66,35.9-16.26,56-52.31,59.74-89.4,3.72-37.41-7.13-75.92-21-113-33.36-89.27-87.4-178.74-150.25-254.54a451,451,0,0,0,56.48,82.42c-36.81-37.11-84.64-61.36-120.76-99.62-26.92-28.52-43.25-62-55.46-99.06-13.06,34.85,29.94,131.47,66.73,147.53-31.57-13.79-57.37-40.92-74.72-71.86s-27-66-33.13-101.09c-3.22-18.52-5.56-37.4-12.11-55.32-7.79-21.34-40.05-65.57-57-32.23Q907.67,426.13,909.64,411.22Z" transform="translate(-169.87 -148.67)" style="fill:#231f20;opacity:0.100000001490116"/><path d="M667.32,1089.27c-4.53,9.77-15.31,15.58-23.36,21.78-8.85,6.81-16.78,13.44-27,18.59,36-39.71,58-92.56,71-148.53,24.49-105.68,25.49-221.18,43.76-334.53C744.58,566.75,767.77,486.24,815.2,419c48.33-68.5,114.46-120.76,202.7-128.64,9.18,4.26,12.38,9.31,16.47,17.49,35.1-59.9,186.88-45.31,229.17,14.18,144.62,203.41,236.94,459.59,250.52,709.66,4,73.37-3.8,148.54-33.13,215.91a221.85,221.85,0,0,0,9.11-69.89,292.54,292.54,0,0,1-85.65,164,362.85,362.85,0,0,0,43.45-100.4c-24.21,60.15-78.08,107.52-140.84,123.85,36.47-9.49,50.95-108.36,53.87-136.12,5.18-49.06,3.35-98.71-11.35-148.61a107.16,107.16,0,0,1-21.46,71.58c14.94-35.26,17.29-75.7,6.48-114.19,9.93,48.94-32,97.92-85.28,100.49,36.6-15.41,58.37-51.29,63.73-88.7,5.41-37.72-3.68-77-15.85-114.9-29.29-91.25-79.23-183.29-138.59-261.76a446.88,446.88,0,0,0,52.69,85c-35.1-38.59-81.79-64.49-116.14-104.23-25.61-29.62-40.41-63.94-50.93-101.79-14.63,34.87,24,133.82,60,151.13-30.92-14.85-55.47-43-71.4-74.83s-24-67.55-28.52-103.2c-2.38-18.83-3.86-38-9.59-56.3-7-22.32-38.51-69.71-56.84-31.77-4.6,9.53-11.83-7.8-18.8-10.55A23.8,23.8,0,0,0,906.17,425c-10.41,1.95-18.36,9.71-24.92,17.76C814.11,525.16,749.38,647.28,745.94,817.4c-.86,95.29,16.35,191.37-4.44,285.57-16.47,74.66-96.58,160.1-51.84,222.09-22.59-31.3-33.37-66.57-29.37-105.1,1.93-18.61,6.42-36.86,11.13-54.93,2.66-10.17,5.45-20.31,8.14-30.47,2.1-7.93,4.16-20.11,7.72-31.21-9.75,41.6-44.54,74.43-52,116.51-1.46-16.95-2.9-34.17.49-50.84,2-9.66,5.52-18.91,9.18-28.06Q655.47,1114.82,667.32,1089.27Z" transform="translate(-169.87 -148.67)" style="fill:#75400e"/><path d="M1171.32,567.73a1224.56,1224.56,0,0,1,78,136.6,511,511,0,0,0-73.17-99.92l34.12,65.94-61.13-70.58a709.82,709.82,0,0,1,132.93,231A956.1,956.1,0,0,0,1147.4,625.9a605.45,605.45,0,0,1,65.53,115.17A1007.58,1007.58,0,0,0,1126.72,625a853.21,853.21,0,0,0,48,93.52,801.58,801.58,0,0,1-124.33-220A367.61,367.61,0,0,0,1107.92,647,472.77,472.77,0,0,1,1031,497.84a394.24,394.24,0,0,0,35.9,178.5,415.29,415.29,0,0,1-64-232.37c1-35.52,6.79-71.53,22.87-103.22s43.4-58.75,77.41-69c46.35-14,97.65,5.26,134,37.3s60.5,75.27,83.7,117.77c16.39,30,32.63,60.13,47.55,90.91a1176.8,1176.8,0,0,1,86.13,242.2,1467,1467,0,0,0-160.22-321.52c43.81,90,87.89,180.74,113.34,277.56a1145.56,1145.56,0,0,0-89.46-198.61l43.13,113.56-67.8-134.09Q1338.54,603,1379,711.1c13.31,35.52,26.4,72,27.14,109.9-19-109.95-76.26-209-132.52-305.31a827.28,827.28,0,0,1,77.47,179.12,1061.79,1061.79,0,0,0-68-136.71,898,898,0,0,1,50.95,136.67A630,630,0,0,0,1246,553.61a1079.85,1079.85,0,0,1,116.35,270.33A1134.11,1134.11,0,0,0,1216.68,563.5a875.08,875.08,0,0,1,70.2,131.25L1196.14,565.1a2126.12,2126.12,0,0,1,116.52,226.74A1059.45,1059.45,0,0,0,1171.32,567.73Z" transform="translate(-169.87 -148.67)" style="fill:#231f20;opacity:0.300000011920929"/><path d="M1507.35,1016a781.34,781.34,0,0,1-8.26,175.47,498.09,498.09,0,0,0-.65-92.68,287.84,287.84,0,0,1-3.44,64.61,247.36,247.36,0,0,0-5.44-65.8,340.52,340.52,0,0,1-43.35,193.68,293,293,0,0,0,31-140.1,295.27,295.27,0,0,1-23.09,114.65,384.19,384.19,0,0,0,9.89-135.35c-3.11,78.24-42.06,154.34-103.7,202.62a273.55,273.55,0,0,0,68.6-117.42,305.62,305.62,0,0,1-40.68,77.63,213.28,213.28,0,0,0,24-63,408,408,0,0,1-51.64,88.71,225.07,225.07,0,0,0,35.61-119.16,699.08,699.08,0,0,1-61.14,144.76c26-46.34,36.22-100.44,34.86-153.54s-13.91-105.41-31.18-155.64a602.83,602.83,0,0,1,5.09,79.18,345.92,345.92,0,0,0-12.53-100.82,248.9,248.9,0,0,1-17.64,73.79,1006,1006,0,0,0,6.65-157.5q29.61,94.38,52.76,190.62-.54-51.19-5-102.25a776.57,776.57,0,0,1,18,101,304.52,304.52,0,0,1,3.68-62.19L1397.9,1161c12.07-60,11.79-121.76,11.46-183,17.77,64.35,17.56,132.46,9.94,198.78,15.55-45.42,15.27-94.52,14.83-142.53a292.9,292.9,0,0,1,3.93,104.91,647.91,647.91,0,0,0,11.06-112.23,529.23,529.23,0,0,1,7.54,83l10.85-85.46,2,68.28,12.75-85.21q2.17,24.91,1.88,50a1174.49,1174.49,0,0,0,4.25-147.91c10.67,52.46,9.25,106.53,7.8,160l7.61-146.76q8.62,68.81,10.34,138.26" transform="translate(-169.87 -148.67)" style="fill:#231f20;opacity:0.300000011920929"/><path d="M930.36,424.56C923.52,412,905.92,408.81,892.64,414s-23,16.7-31.37,28.26c-67.19,92.75-103.09,200.07-120.85,319.88a882.84,882.84,0,0,1,20.11-136.92Q749,670.53,741.4,716.67L744,632.51c-9.31,62-15.67,124.56-17.66,187.26-11.87-120.84,15.14-245.19,76.07-350.22,19.34-33.34,42.24-65,71.31-90.34s64.71-44,102.95-48.83c4.46-.56,10.63.37,11,4.85.15,2-1,3.74-2.2,5.33C965.46,367.88,936.77,391.32,930.36,424.56Z" transform="translate(-169.87 -148.67)" style="fill:#231f20;opacity:0.300000011920929"/><path d="M751.19,724a163.65,163.65,0,0,0,5.46-34.25,348.34,348.34,0,0,0-20.07,99.89l8.14-92.55-10.87,67,0-31.65-.12,15.82,4.45-91.35c-9.54,50-13,100.84-16.5,151.58L713,935.86,713,782.2l-7.54,89.47c-1.91,22.63-3.82,45.28-7.34,67.71a474.31,474.31,0,0,1-32.3,112.44,360.32,360.32,0,0,0,41.57-87.2,231.54,231.54,0,0,1-16.26,57.54,208.86,208.86,0,0,0,23.3-43.8,293.46,293.46,0,0,1-13.16,45.16c14.23-36.28,12.18-76.21,19.14-114.56-5.67,51.11-4.46,103.83-21.57,152.32,6.78-13.47,10.54-28.21,14.25-42.82l17.68-69.65c-1.47,46-12.6,91.1-23.68,135.78l26.69-99.77a388.08,388.08,0,0,1-10.31,120.47,340.28,340.28,0,0,0,19.12-104c8.48,45.34-5.89,91.5-20.09,135.39,16.53-25.35,20.62-56.61,23.59-86.73,7.48-76-2.67-321,12.06-360.1-3.89,5.64-1.48,24-4.17,30.34l-1.5,3.51c-.27.64-.63,1.35-1.31,1.51S750.61,724.38,751.19,724Z" transform="translate(-169.87 -148.67)" style="fill:#fff;opacity:0.400000005960465;mix-blend-mode:overlay"/><path d="M666.9,1244.94c9.75-53.34,19.54-107.13,18.32-161.34L635,1201.38q19.13-65.06,33.79-131.33a211.72,211.72,0,0,0-32,41.12L687,1033.88a302.94,302.94,0,0,0-10.53,47.93,45.52,45.52,0,0,1,6.21-14.64l-4.85,23.15,18.75-48.51a108.62,108.62,0,0,0-6.12,48.76A102.81,102.81,0,0,0,706,1053.86a353.43,353.43,0,0,0-9,87.73c1.42-17.28,3.42-44.62,13.74-58.56.75,13.26,3.27,37.14-1,49.72l14.61-62.06c-1.32,24.34-1.34,45.23-2.66,69.57a483.72,483.72,0,0,0,11.73-49.92c.07,65.09-54.09,117.69-68.34,181.2l4.31-42.42" transform="translate(-169.87 -148.67)" style="fill:#231f20;opacity:0.300000011920929"/><path d="M1458.6,733.55a336.76,336.76,0,0,0-27-75.17l19.11,81.78c6,25.5,12,51.37,11,77.54a1052.23,1052.23,0,0,0-78.33-217.2q27.45,76.26,50.7,153.95A545.38,545.38,0,0,1,1402,665.22q19,74.17,30.77,149.92L1394.43,691c-8.87-28.72-18-57.89-34.69-82.86A1208.9,1208.9,0,0,1,1410.61,769q-28.15-67-53.3-135.17,18.79,56.68,36.11,113.83c11.95,39.44,23.45,79.59,24.53,120.79a2169.07,2169.07,0,0,0-85.81-236.08,1144.21,1144.21,0,0,1,55.43,184.1,754,754,0,0,0-46.59-118,713.58,713.58,0,0,1,33.49,114.31,961,961,0,0,0-83.76-193.89c34.24,81.32,68.68,163.3,86.16,249.78A914.85,914.85,0,0,0,1289.07,683a1054,1054,0,0,1,55.68,133.16c-13.91-29.39-27.93-59-47-85.34A837.43,837.43,0,0,1,1333,818.85a738.19,738.19,0,0,0-101.69-176c24.47,31.38,43.41,71.84,60.8,107.5a588.34,588.34,0,0,1,24.66,57.7c6.31,17.46,17.29,42.41,16.27,60.09-23.72-47.32-44.17-96.52-66.88-144.36a618.38,618.38,0,0,1,28.54,85.65,731.34,731.34,0,0,0-77.11-147.19l35.35,79.46c17.86,40.14,35.79,80.49,47,123L1190.05,675.87c55.22,97.5,103.26,202.94,128.08,312.21-3-38.54-4.33-58.84-7.3-97.38,20.36,59.76,35.69,100,58.09,159-3.91-37.15-19.4-73.32-16-110.52l20.94,79.51a1112.36,1112.36,0,0,0-14.71-119.59,537.36,537.36,0,0,1,19.55,68.35l-4.22-68.55A1090.93,1090.93,0,0,1,1398.12,1098c10.41-72.68.33-146.56-9.75-219.29,18.07,62.28,53.69,120.94,54.42,185.78a647.08,647.08,0,0,0-.37-130c12.21,32.48,14,67.79,15.75,102.45,9.67-57.46-3-116.07-15.67-172.95a368.6,368.6,0,0,1,31.68,165.45c3.58-56.07-2.26-112.27-8.08-168.15a506,506,0,0,1,15.18,91.3,541.25,541.25,0,0,1-2.28-99,517.15,517.15,0,0,1,24.4,158.75c-6-86.73-12.21-174.63-40.35-256.89C1460.34,747.64,1460.47,741.71,1458.6,733.55Z" transform="translate(-169.87 -148.67)" style="fill:#fff;opacity:0.200000002980232;mix-blend-mode:overlay"/><path d="M1050,681c-26,15.25-48,35.73-66.36,59.22-1.11-12-1-23.95,1.51-35.8,13.69-63.91,79.66-150.6,135.09-134.17,36.57,10.84,68.11,49,69.94,88a62.21,62.21,0,0,1-1,15C1143.53,655,1093.79,655.34,1050,681Z" transform="translate(-169.87 -148.67)" style="fill:#231f20;opacity:0.100000001490116"/><path d="M879.83,637.81c-.16-.16,17.74,21.83,31.07,71.56a525.12,525.12,0,0,1,17.3,67.29C925.66,734,912.45,671.15,879.83,637.81Z" transform="translate(-169.87 -148.67)" style="fill:#c48a4a"/><path d="M909.36,844.86a12,12,0,0,1-2.21-13.37q5.22-15,23.51-14.84c6.6.1,12.51.22,19.06-.86,4-.67-28.49-5.86-43.24,5-12.36,9.1-12.8,24.42.49,31.73,24.63,13.55,52.59,11.54,79.45-5.83C989.35,844.78,927.72,858.52,909.36,844.86Z" transform="translate(-169.87 -148.67)" style="fill:#c48a4a"/><path d="M978.1,827.44c-12.16-6.5-24.74-13.13-38.48-14.35s-29.05,4.39-35.07,16.8c5.32,8.53,16.6,10.81,26.63,11.46C948.08,842.44,967.08,840.29,978.1,827.44Z" transform="translate(-169.87 -148.67)" style="fill:#fff;opacity:0.400000005960465"/><path d="M882.34,641.15C913.48,690.9,930.8,731,932.25,789.66c-56-177.73-151.76-149.08-151.43-151.37,2.18-15.34.49-38.53,50.39-22.7C853.28,622.58,870.06,621.53,882.34,641.15Z" transform="translate(-169.87 -148.67)" style="fill:#231f20;opacity:0.100000001490116"/><path d="M972.89,854.19a118.56,118.56,0,0,1-42.72,3.33c-7.91-.83-16.12-2.64-22.11-7.88s-8.84-14.75-4.46-21.39c6.71-10.15,25.52-8.67,29-20.34a20.45,20.45,0,0,0,.28-7.82A223.15,223.15,0,0,0,921,747.2a87,87,0,0,1-19.65,68.38c-5.76,6.73-12.74,12.88-15.67,21.24-3.44,9.82-.43,21,5.44,29.59s14.28,15.07,22.67,21.23c6.22,4.57,13.27,9.27,21,8.52,4.73-.46,9-3,12.84-5.81A70.71,70.71,0,0,0,972.89,854.19Z" transform="translate(-169.87 -148.67)" style="fill:#231f20;opacity:0.100000001490116"/><path d="M954.76,1012.37c-13.21-.71-26.94-6-34.27-17-4.05-6.08-5.84-13.34-8-20.33A191.43,191.43,0,0,0,882,915.15c73.64-5.19,148.75,16.81,220.76.59q-29.73,28-60.7,54.69C1017,992,987.84,1014.16,954.76,1012.37Z" transform="translate(-169.87 -148.67)" style="fill:#fff"/><path d="M915.81,1028c-15.42-13.43-34.76-93.67-30.78-113,11.88,18,34.58,79,42.3,86.5,8.68,8.4,21.92,10.7,33.83,8.66s22.8-7.86,33.24-13.93A543.7,543.7,0,0,0,1078,936.37c9.16-8,18.51-16.53,30.21-19.82A1006.08,1006.08,0,0,1,1039,993.62c-16.64,16.72-34.43,33.22-56.37,41.9S933.6,1043.49,915.81,1028Z" transform="translate(-169.87 -148.67)" style="fill:#e6535f"/><path d="M885,915c9.48,14.34,25.86,56.14,36,76.22-6.74,10-8,20.55.27,30.91,6.07,7.63,17,9.67,26.1,10.7,11.27,1.28,24.29.76,35.75-3a72.74,72.74,0,0,0,15.86-2.58,105.84,105.84,0,0,1-16.36,8.27c-21.93,8.67-49.05,8-66.84-7.51C900.39,1014.58,881.05,934.33,885,915Z" transform="translate(-169.87 -148.67)" style="fill:#231f20;opacity:0.5;mix-blend-mode:overlay"/><path d="M872.94,913.81c8.95-11.77,25.61-13.93,40.39-14.1,64.85-.76,132.92,15.36,197.75,16.94-53.89,8-113,9.16-167.51,7.65C919.65,923.65,895.11,922.86,872.94,913.81Z" transform="translate(-169.87 -148.67)" style="fill:#d64552"/><path d="M913.34,899.71c13.4-.16,26.95.43,40.57,1.44,1,.07-80.09,6-11.48,23.12-23.05-.64-60.49-4.82-64-9.84C870.25,902.93,899.07,899.88,913.34,899.71Z" transform="translate(-169.87 -148.67)" style="fill:#231f20;opacity:0.5;mix-blend-mode:overlay"/><path d="M1122.82,932.63a19.43,19.43,0,0,0-3.58-5.24c-11.72-12.4-27-20.67-42.84-26.67,9.41-3.27,20.23-.5,29.59,3.45,5.61,2.37,11.24,5.23,15.12,9.93s5.63,11.61,2.79,17A7.76,7.76,0,0,1,1122.82,932.63Z" transform="translate(-169.87 -148.67)" style="fill:#231f20;opacity:0.100000001490116"/></g><g id="helmet"><path d="M1413,590.33c-9.32-23-18.86-58.55-24.84-83.25-1.8-7.42-15.37-9.13-10.76-12.51-3.47-40.22,1.8-90.61-20.9-130-3.48-6-4.29-11.63-3.29-16.47-25-51-77.36-130.71-134.61-145.33-65.66-11.85-130.91-15.4-195.65-7.05-15,1.94-30.17,3.39-45,6.22-19.38,3.7-81.48,16.82-87.76,20.76-21.44,13.48-37.88,32.1-53.93,51.33a467,467,0,0,0-38.68,53.43c-30,92.08-40.73,181.69-58.72,277.82,118.29,5,415.63,26,510.9,15C1318.57,613.49,1408.67,592.57,1413,590.33Z" transform="translate(-169.87 -148.67)" style="fill:#231f20;opacity:0.400000005960465"/><path d="M1418.86,518.52c1.78,35.94-15,43.47-29.37,48.72-29.6,10.84-136.28,28.47-144.86,28-94.93,3.25-521.86-4.53-557.48-10C674.05,583.88,661,579,648,575l-.11,0c-6.27-2.06-8.31-10.21-4.08-14.78,13.91-15,45.7-30.89,70.11-34.88a7.8,7.8,0,0,0,6.38-6.57c7.31-42.94,2.83-88.79,15.4-128.85C824.23,30.75,1403.71,71.87,1418.86,518.52Z" transform="translate(-169.87 -148.67)" style="fill:#ffdc15"/><g style="opacity:0.100000001490116"><path d="M1418.86,518.52c1.78,35.94-15,43.47-29.37,48.72-29.6,10.84-136.28,28.47-144.86,28-94.93,3.25-521.86-4.53-557.48-10C674.05,583.88,661,579,648,575l-.11,0c-6.27-2.06-8.31-10.21-4.08-14.78,13.91-15,45.7-30.89,70.11-34.88a7.8,7.8,0,0,0,6.38-6.57c7.31-42.94,2.83-88.79,15.4-128.85C824.23,30.75,1403.71,71.87,1418.86,518.52Z" transform="translate(-169.87 -148.67)" style="fill:#231f20"/></g><path d="M863.34,401.82c1.15-15.07,4.75-30.16,5.52-45.33-20.44,5.87-69.93,21.93-72.79,36.72-5.45,27.45-20.59,113.27-22.52,129,30.43-.38,50.58,6.84,79.2,6.78C852.58,506.48,862,419.59,863.34,401.82Z" transform="translate(-169.87 -148.67)" style="fill:#ffdc15"/><path d="M1221.83,392.82c-21.61-5.49-70.13-19.84-92-20.55-6.69-.22,81.37,22.49,79.92,34.49-2.39,19.78,6.49,93.74,7.16,133.36,0,2.75,19.78,1.86,17.8,1.5-.78-.14-14.1-125.65-9.27-143.94C1226.14,395,1224.24,393.43,1221.83,392.82Z" transform="translate(-169.87 -148.67)" style="fill:#fff;opacity:0.400000005960465"/><path d="M1086.78,346.76c-4.53,61.47-10.42,122-2.4,184.06,3.67.14,7.34.27,11,.45-4.29-28.35-3.16-57.47-1.87-85.2,1.54-33.19,7-65.59,11.33-98.2,3.22-28.78,7.54-62.54-4.08-88.45-6.85-15.27-24.66-21.45-35.22-28.63,12.89,17.58,23.81,24.68,23.26,81C1088.68,324.13,1087.56,336.08,1086.78,346.76Z" transform="translate(-169.87 -148.67)" style="fill:#231f20;opacity:0.200000002980232"/><path d="M858.74,337.38c-4.09,3.3-66.54,22.25-69.91,35.35-3.5,13.63-15,50.26-19,63.94-1.78,6.14-19.16,80.07-19.79,80,8.61,1-1.4-2.83,7.2-2.07,14.43-47.79,25.7-110.5,36.93-129.57,11.1-18.83,66.56-29.24,72.37-30.27-3.68,52.6-18.42,120.81-18.53,174.17,8.12.11,5.4,1.81,13.51,1.71,0-1.38-8.39-231.35,76.56-286.46,48.28-31.32,95.62-24.66,99.58-25-23.61,2-50.67-10.92-73.55-4.24C859.27,245.56,862.45,334.38,858.74,337.38Z" transform="translate(-169.87 -148.67)" style="fill:#231f20;opacity:0.200000002980232"/><path d="M1234.89,543.61q8.1.61,16.2,1.09c-4.82-53.66-8.48-120.61-9.58-168-12.5-3-98.82-17.53-136.07-29.88.55,8.55-6.55,11.55,4.71,14.75,28.52,8.1,90.07,20.4,117.55,28.91C1231.31,438.53,1231,495.06,1234.89,543.61Z" transform="translate(-169.87 -148.67)" style="fill:#231f20;opacity:0.100000001490116"/><path d="M1085.59,539.89c0-13.42-4.63-157.29,1.57-212,5.33-47,7.71-88.16-50.73-107.4-31-10.2,18.61,3.27,2.85,105.28-3.73,24.15-5.58,48.58-7.15,73.15-2.92,45.82-1.64,92,1.88,138.3,10.36-.08-221.13-8.15-301.31-13.22-16.3-1-80.61,28.9-77.68,41.57,55.53,14.88,315,21.35,388.8,22.78,84.85,1.64,278.15-4.77,359.12-27.87C1403.29,553.5,1252.27,546.7,1085.59,539.89Z" transform="translate(-169.87 -148.67)" style="fill:#fff;opacity:0.400000005960465"/><path d="M1196.55,180.38a20.38,20.38,0,0,0-9-1.6c33.31,13.65,212.53,143.16,221.2,374.78C1413.54,551.38,1442.38,296.75,1196.55,180.38Z" transform="translate(-169.87 -148.67)" style="fill:#fff;opacity:0.300000011920929"/></g><g id="thumbs_up" data-name="thumbs up"><path d="M326.15,1247.07c-2.08-9.41-2.26-19.25-3.27-28.9a8.37,8.37,0,0,0-.64-2.66c-4.82-10.23-2.45-20.2,1.29-30,2.36-6.18,5.89-11,13.47-11.91s80.78-10.19,90.38-12.29c10.95-2.4,18-10.24,23.72-19.39,6.14-9.79,5.3-19.32-1.44-28.28-14.25-18.94-13.64-38.11-1.21-57.47a161.48,161.48,0,0,1,12-16.5c4.36-5.21,10-8.54,17.17-8.5,6.56,0,9.77,3.06,10.87,9.58,5.45,46.83,8.8,73.84,19.2,111.1,1.53,8.43,3.6,16.77,5.76,25.08,8.24,15.71,3.83,70.3,3.4,77.55q-.89,10-2.24,19.85c-.18,1-.36,2.07-.56,3.09-6.35,15.64-19.07,31.31-42.68,40-7.1,2.76-14.28,5.17-21.53,7.32a29.33,29.33,0,0,1-2.92.82c-19.53,5.58-39.51,9.28-59.7,12.23-10.17,1.49-18.1-1.27-25.2-8.38-6.84-6.84-11.16-14.42-10.7-24.47a9.61,9.61,0,0,0-3-7c-9.23-7.48-11.81-17.27-11.46-28.54.07-2.18-1.39-4.52-2.48-6.61C331.68,1257.58,327.39,1252.67,326.15,1247.07Z" transform="translate(-169.87 -148.67)" style="fill:#ffbe87"/><path d="M517.68,1228.5c-.82,15.94-2.13,39.64-3.36,48.39a69.14,69.14,0,0,1-9.24,16.32c3.55-10.88-.91-33.73-13.76-44.36-20.64-17.07-37.93-32.11-49.58-56.23-3.95-8.17-6.7-17.81-3.27-26.21,3,21.06,15.41,39.67,30,55.17,4.3,4.58,8.9,9,14.5,11.87s12.37,3.94,18.2,1.61c7.32-2.93,11.79-10.71,13-18.51,2.5-16.59-4.46-37-10-52.39-8.21-22.72-15.82-44-18.07-68.27-1.84-19.87,2.35-47.57-10.59-64.52a20.86,20.86,0,0,1,2.25-.19c6.56,0,9.77,3.06,10.87,9.58,5.45,46.83,8.8,73.84,19.2,111.1,2.37,13,6,25.83,9.29,38.66.29,1.12.53,2.23.74,3.35q.62,9.64.73,19.27C518.41,1214,518.11,1220.18,517.68,1228.5Z" transform="translate(-169.87 -148.67)" style="fill:#231f20;opacity:0.100000001490116"/><path d="M414,1288.39c7.5-.13,18.89,1,20.28,10.47.71,4.82.36,17.54-3.63,20.83,4.55-3.76,5.91-10.18,5.77-16.08s-1.48-11.75-1.11-17.64c.29-4.64,1.64-9.17,1.88-13.81a29.35,29.35,0,0,0-2.32-13.05c-1.68-3.92-4.26-7.64-4.38-11.9a28.3,28.3,0,0,1,.93-6.32,45.52,45.52,0,0,0-5.81-32.46,21.15,21.15,0,0,1-2.81-5.43c-.91-3.41.34-7,1-10.44,1.46-8.32-1.19-19.63-8-25.22-6.08-5-20.82-2-28.09,0A37.58,37.58,0,0,1,412.2,1180c2,2.31,3.8,5.4,2.78,8.29a9.51,9.51,0,0,1-3.39,4c-5,4-10.55,8-16.39,10.56-6.14,2.69-52.2,12.51-67,13.38,16.39-1.18,36.52-3.26,53.88-6.33,8.53-1.51,18.45-5.7,26.86-3.63s16.34,8.76,17,17.41-6,16.12-13.65,19.79S361,1255,348.61,1260.36a194.2,194.2,0,0,0,46.1-8.39c5.17-1.58,10.36-3.36,15.76-3.56,7.11-.26,14.67,2.76,16.68,10.12,4.11,15-9.86,23-21.61,26.51-15.89,4.81-33.91,5.6-48.45,11.42C376,1298.85,394.81,1288.73,414,1288.39Z" transform="translate(-169.87 -148.67)" style="fill:#231f20;opacity:0.100000001490116"/></g><g id="Hand"><path d="M971.82,1635.42c2-3.48,5.63-3.77,9.76-2.5,3.93,1,8.16,4,11.85,5.24a107.38,107.38,0,0,0,17.07,9,146.93,146.93,0,0,0,14.62,4.17c2.89.53,5.87.93,9.08,1.3,3,.83,6.1,1.61,9.28,2.36,15.81,2.83,32.28,5.48,47.28,10.62,6.67,2.28,13.23,5,18.78,8.92,15.69,9,31.94,21.38,30.62,23.5-7.28,4.17-32,22.91-39.2,27-17.07,9.71-42,28.08-57.66,39.58-52.6,11.69-112.51-20.25-112.86-20.26,1.86-.83,80-10.57,99.4-28.12,7.31-8,8.82-13.71,7.42-18a12.53,12.53,0,0,0-1.41-2,42.29,42.29,0,0,0-7.5-6.84c-.76-.42-1.53-.81-2.29-1.19-6.65-3.28-8.53-3-15.71-4.54-.94-.2-2.31-.55-3.88-1-6.49-1.17-12.75-3-18-8-.65-.6-1.25-1.24-1.88-1.85-9.26-8.22-18.8-20.35-16.63-32,0-.11,0-.21,0-.32A7,7,0,0,1,971.82,1635.42Z" transform="translate(-169.87 -148.67)" style="fill:#ffbe87"/><path d="M1054.11,1702.13c-.48.36-1,.71-1.41,1.1-4.52,3.21-10.86,5-17.39,5.66,2.47-4.34,2.86-7.84,1.94-10.69a12.54,12.54,0,0,0-1.41-2,42.29,42.29,0,0,0-7.5-6.84c-.76-.42-1.53-.81-2.29-1.19-6.65-3.28-8.53-3-15.71-4.54-.94-.2-2.31-.55-3.88-1-6.49-1.17-12.75-3-18-8-.65-.6-1.25-1.24-1.88-1.85-6.52-5.78-13.15-13.5-15.77-21.64a100,100,0,0,0,23.82,13c13.31,5.15,27,8.9,40.77,12.56,6.44,1.71,21.71,10,23.57,17.45A14,14,0,0,1,1054.11,1702.13Z" transform="translate(-169.87 -148.67)" style="fill:#231f20;opacity:0.100000001490116"/><path d="M978.37,1735.48c-3,10.62,2.64,23.8,16.87,23.46,22-.52,42.34,1.73,63.12-5.36-5.5,4-10.66,7.77-15.08,11-52.6,11.7-112.51-20.25-112.86-20.26C931.42,1743.89,954.34,1740.88,978.37,1735.48Z" transform="translate(-169.87 -148.67)" style="fill:#231f20;opacity:0.100000001490116"/><path d="M1360.33,1648.31c-11.76,37.29-164,64.72-266.18,66.5-17.63.31-21.36-24.6-6.7-34.39,58.9-39.32,163.19-96.91,158.86-104.38-13.39-23.13-21.19-57.62-26.89-71.61,23.47-16.2,102.67-35.59,103.35-31.94C1326.41,1491.86,1366.71,1628.09,1360.33,1648.31Z" transform="translate(-169.87 -148.67)" style="fill:#ffbe87"/><path d="M1118.5,1662.47c28.7-24.86,129.43-83.64,127.82-86.43-1.21-2.1-13-25.74-17.3-35.8-5.45-12.72-10.34-25.65-15.56-38.46,23.47-16.2,108.64-32.94,109.33-29.29.57,3,1.91,9.31,3.76,17.74-22.05,4.44-47.4,13.66-57.79,35.4-8.36,17.48-5.61,42.85,7.41,57.33,3.69,4.1,8.39,7.13,12.88,10.34a159.91,159.91,0,0,1,24.24,21.37c-10-10.78-30.85-15.33-44.78-16.14-17.73-1-30.55,5.71-46.5,12.25A801.13,801.13,0,0,0,1118.5,1662.47Z" transform="translate(-169.87 -148.67)" style="fill:#231f20;opacity:0.100000001490116"/></g></g></g></g></svg>